<svg version="1.1" viewBox="0.0 0.0 960.0 172.0" fill="none" stroke="none" stroke-linecap="square" stroke-miterlimit="10" xmlns:xlink="http://www.w3.org/1999/xlink" xmlns="http://www.w3.org/2000/svg"><clipPath id="p.0"><path d="m0 0l960.0 0l0 172.0l-960.0 0l0 -172.0z" clip-rule="nonzero"/></clipPath><g clip-path="url(#p.0)"><path fill="#000000" fill-opacity="0.0" d="m0 0l960.0 0l0 172.0l-960.0 0z" fill-rule="evenodd"/><path fill="#000000" fill-opacity="0.0" d="m133.26479 6.0l843.68506 0l0 138.29921l-843.68506 0z" fill-rule="evenodd"/><path fill="#695e77" d="m183.01479 108.00781q-7.046875 0 -13.15625 -2.5625q-6.09375 -2.578125 -10.625 -7.109375q-4.53125 -4.546875 -7.109375 -10.640625q-2.5625 -6.09375 -2.5625 -13.0625q0 -6.96875 2.515625 -12.96875q2.53125 -6.0 7.0625 -10.53125q4.546875 -4.546875 10.59375 -7.0625q6.046875 -2.515625 13.109375 -2.515625q7.140625 0 13.1875 2.515625q6.046875 2.515625 10.578125 7.0625q4.546875 4.53125 7.109375 10.578125q2.578125 6.046875 2.578125 13.015625q0 6.96875 -2.578125 13.015625q-2.5625 6.046875 -7.109375 10.59375q-4.53125 4.53125 -10.53125 7.109375q-6.0 2.5625 -13.0625 2.5625zm-0.171875 -11.640625q6.21875 0 10.796875 -2.75q4.59375 -2.75 7.203125 -7.609375q2.609375 -4.859375 2.609375 -11.375q0 -4.765625 -1.46875 -8.703125q-1.453125 -3.9375 -4.203125 -6.828125q-2.75 -2.890625 -6.515625 -4.4375q-3.75 -1.5625 -8.421875 -1.5625q-6.0625 0 -10.6875 2.703125q-4.625 2.703125 -7.234375 7.5625q-2.609375 4.859375 -2.609375 11.265625q0 4.859375 1.5 8.890625q1.515625 4.03125 4.21875 6.875q2.703125 2.84375 6.5 4.40625q3.8125 1.5625 8.3125 1.5625zm66.62184 11.546875q-4.765625 0 -8.609375 -1.96875q-3.84375 -1.984375 -6.140625 -5.375q-2.296875 -3.390625 -2.46875 -7.78125l0 -15.671875q0.171875 -4.40625 2.5 -7.84375q2.34375 -3.4375 6.140625 -5.453125q3.8125 -2.015625 8.578125 -2.015625q6.140625 0 11.0 3.03125q4.859375 3.015625 7.65625 8.25q2.796875 5.21875 2.796875 11.8125q0 6.515625 -2.796875 11.75q-2.796875 5.21875 -7.65625 8.25q-4.859375 3.015625 -11.0 3.015625zm-24.5625 17.59375l0 -62.78125l12.015625 0l0 11.640625l-2.015625 10.71875l1.921875 10.71875l0 29.703125l-11.921875 0zm22.453125 -28.6875q3.3125 0 5.875 -1.515625q2.5625 -1.515625 3.984375 -4.21875q1.421875 -2.703125 1.421875 -6.28125q0 -3.46875 -1.421875 -6.171875q-1.421875 -2.71875 -3.984375 -4.21875q-2.5625 -1.515625 -5.875 -1.515625q-3.203125 0 -5.765625 1.515625q-2.5625 1.5 -3.984375 4.21875q-1.421875 2.703125 -1.421875 6.171875q0 3.578125 1.421875 6.28125q1.421875 2.703125 3.9375 4.21875q2.515625 1.515625 5.8125 1.515625zm52.61258 11.09375q-6.96875 0 -12.375 -2.984375q-5.40625 -2.984375 -8.5625 -8.203125q-3.15625 -5.21875 -3.15625 -11.921875q0 -6.59375 3.0625 -11.765625q3.078125 -5.1875 8.390625 -8.25q5.3125 -3.078125 11.8125 -3.078125q6.421875 0 11.328125 2.890625q4.90625 2.890625 7.703125 7.890625q2.796875 4.984375 2.796875 11.3125q0 1.1875 -0.140625 2.4375q-0.140625 1.234375 -0.5 2.78125l-37.21875 0.09375l0 -8.984375l31.625 -0.09375l-4.859375 3.765625q-0.1875 -3.9375 -1.421875 -6.59375q-1.234375 -2.671875 -3.578125 -4.078125q-2.328125 -1.421875 -5.734375 -1.421875q-3.5625 0 -6.234375 1.609375q-2.65625 1.59375 -4.078125 4.484375q-1.40625 2.875 -1.40625 6.828125q0 4.03125 1.5 7.015625q1.515625 2.96875 4.359375 4.578125q2.84375 1.59375 6.59375 1.59375q3.390625 0 6.140625 -1.140625q2.75 -1.140625 4.765625 -3.4375l7.0625 7.0625q-3.203125 3.75 -7.84375 5.6875q-4.625 1.921875 -10.03125 1.921875zm58.21103 -0.921875l0 -25.390625q0 -3.9375 -2.484375 -6.40625q-2.46875 -2.484375 -6.40625 -2.484375q-2.578125 0 -4.59375 1.109375q-2.015625 1.09375 -3.15625 3.109375q-1.140625 2.015625 -1.140625 4.671875l-4.671875 -2.375q0 -5.234375 2.234375 -9.125q2.25 -3.890625 6.234375 -6.09375q3.984375 -2.203125 9.03125 -2.203125q4.859375 0 8.703125 2.4375q3.859375 2.421875 6.046875 6.328125q2.203125 3.890625 2.203125 8.375l0 28.046875l-12.0 0zm-29.796875 0l0 -44.265625l12.015625 0l0 44.265625l-12.015625 0zm82.5889 0.921875q-6.875 0 -12.890625 -2.515625q-6.0 -2.53125 -10.53125 -7.109375q-4.53125 -4.59375 -7.0625 -10.59375q-2.515625 -6.0 -2.515625 -12.96875q0 -7.0625 2.5625 -13.0625q2.578125 -6.0 7.15625 -10.53125q4.578125 -4.546875 10.71875 -7.0625q6.140625 -2.515625 13.296875 -2.515625q7.96875 0 14.65625 2.984375q6.703125 2.96875 11.09375 8.375l-8.4375 8.4375q-3.015625 -3.953125 -7.515625 -6.046875q-4.484375 -2.109375 -9.890625 -2.109375q-6.140625 0 -10.859375 2.703125q-4.71875 2.703125 -7.390625 7.515625q-2.65625 4.8125 -2.65625 11.21875q0 6.421875 2.609375 11.328125q2.625 4.90625 7.15625 7.65625q4.546875 2.75 10.40625 2.75q6.046875 0 10.34375 -2.25q4.3125 -2.25 6.609375 -6.59375q2.296875 -4.359375 2.296875 -10.6875l8.15625 5.59375l-28.140625 -0.28125l0 -10.8125l32.8125 0l0 1.75q0 11.546875 -4.125 19.296875q-4.125 7.734375 -11.328125 11.640625q-7.1875 3.890625 -16.53125 3.890625zm61.042908 0q-6.6875 0 -12.0625 -3.0625q-5.359375 -3.078125 -8.515625 -8.34375q-3.15625 -5.28125 -3.15625 -11.78125q0 -6.515625 3.109375 -11.6875q3.109375 -5.1875 8.515625 -8.25q5.421875 -3.078125 12.015625 -3.078125q6.78125 0 12.140625 3.078125q5.359375 3.0625 8.46875 8.25q3.125 5.171875 3.125 11.6875q0 6.5 -3.125 11.78125q-3.109375 5.265625 -8.46875 8.34375q-5.359375 3.0625 -12.046875 3.0625zm-0.09375 -11.1875q3.390625 0 6.0 -1.515625q2.609375 -1.515625 4.03125 -4.21875q1.421875 -2.703125 1.421875 -6.1875q0 -3.46875 -1.46875 -6.125q-1.46875 -2.671875 -4.03125 -4.171875q-2.5625 -1.515625 -5.953125 -1.515625q-3.296875 0 -5.875 1.515625q-2.5625 1.5 -4.03125 4.171875q-1.453125 2.65625 -1.453125 6.125q0 3.484375 1.453125 6.1875q1.46875 2.703125 4.03125 4.21875q2.578125 1.515625 5.875 1.515625zm44.541077 10.265625l-19.515656 -44.265625l13.1875 0l14.0312805 36.46875l-6.515625 0l14.125 -36.46875l12.734375 0l-19.421875 44.265625l-8.625 0zm53.434204 0.921875q-6.96875 0 -12.375 -2.984375q-5.40625 -2.984375 -8.5625 -8.203125q-3.15625 -5.21875 -3.15625 -11.921875q0 -6.59375 3.0625 -11.765625q3.078125 -5.1875 8.390625 -8.25q5.3125 -3.078125 11.8125 -3.078125q6.421875 0 11.328125 2.890625q4.90625 2.890625 7.703125 7.890625q2.796875 4.984375 2.796875 11.3125q0 1.1875 -0.140625 2.4375q-0.140625 1.234375 -0.5 2.78125l-37.21875 0.09375l0 -8.984375l31.625 -0.09375l-4.859375 3.765625q-0.1875 -3.9375 -1.421875 -6.59375q-1.234375 -2.671875 -3.578125 -4.078125q-2.328125 -1.421875 -5.734375 -1.421875q-3.5625 0 -6.234375 1.609375q-2.65625 1.59375 -4.078125 4.484375q-1.40625 2.875 -1.40625 6.828125q0 4.03125 1.5 7.015625q1.515625 2.96875 4.359375 4.578125q2.84375 1.59375 6.59375 1.59375q3.390625 0 6.140625 -1.140625q2.75 -1.140625 4.765625 -3.4375l7.0625 7.0625q-3.203125 3.75 -7.84375 5.6875q-4.625 1.921875 -10.03125 1.921875zm28.414124 -0.921875l0 -44.265625l12.015625 0l0 44.265625l-12.015625 0zm12.015625 -24.46875l-4.671875 -3.125q0.8125 -8.15625 4.75 -12.875q3.953125 -4.71875 11.375 -4.71875q3.203125 0 5.765625 1.0625q2.578125 1.046875 4.6875 3.421875l-7.515625 8.625q-1.015625 -1.09375 -2.4375 -1.640625q-1.421875 -0.5625 -3.25 -0.5625q-3.84375 0 -6.28125 2.4375q-2.421875 2.421875 -2.421875 7.375zm55.818542 24.46875l0 -25.390625q0 -3.9375 -2.484375 -6.40625q-2.46875 -2.484375 -6.40625 -2.484375q-2.578125 0 -4.59375 1.109375q-2.015625 1.09375 -3.15625 3.109375q-1.140625 2.015625 -1.140625 4.671875l-4.671875 -2.375q0 -5.234375 2.234375 -9.125q2.25 -3.890625 6.234375 -6.09375q3.984375 -2.203125 9.03125 -2.203125q4.859375 0 8.703125 2.4375q3.859375 2.421875 6.046875 6.328125q2.203125 3.890625 2.203125 8.375l0 28.046875l-12.0 0zm-29.796875 0l0 -44.265625l12.015625 0l0 44.265625l-12.015625 0zm70.02643 0.921875q-6.046875 0 -10.90625 -3.015625q-4.859375 -3.03125 -7.609375 -8.25q-2.75 -5.234375 -2.75 -11.75q0 -6.59375 2.75 -11.8125q2.75 -5.234375 7.609375 -8.25q4.859375 -3.03125 10.90625 -3.03125q4.765625 0 8.515625 1.921875q3.765625 1.921875 6.015625 5.359375q2.25 3.4375 2.421875 7.75l0 15.953125q-0.171875 4.390625 -2.421875 7.78125q-2.25 3.390625 -6.015625 5.375q-3.75 1.96875 -8.515625 1.96875zm2.203125 -11.09375q5.046875 0 8.15625 -3.34375q3.109375 -3.34375 3.109375 -8.671875q0 -3.46875 -1.421875 -6.171875q-1.40625 -2.71875 -3.9375 -4.21875q-2.515625 -1.515625 -5.90625 -1.515625q-3.296875 0 -5.828125 1.515625q-2.515625 1.5 -3.9375 4.21875q-1.421875 2.703125 -1.421875 6.171875q0 3.578125 1.421875 6.28125q1.421875 2.703125 3.9375 4.21875q2.53125 1.515625 5.828125 1.515625zm10.625 10.171875l0 -11.921875l1.9375 -10.8125l-1.9375 -10.625l0 -10.90625l11.921875 0l0 44.265625l-11.921875 0zm52.346985 0l0 -25.390625q0 -3.9375 -2.484375 -6.40625q-2.46875 -2.484375 -6.40625 -2.484375q-2.578125 0 -4.59375 1.109375q-2.015625 1.09375 -3.15625 3.109375q-1.140625 2.015625 -1.140625 4.671875l-4.671875 -2.375q0 -5.234375 2.234375 -9.125q2.25 -3.890625 6.234375 -6.09375q3.984375 -2.203125 9.03125 -2.203125q4.859375 0 8.703125 2.4375q3.859375 2.421875 6.046875 6.328125q2.203125 3.890625 2.203125 8.375l0 28.046875l-12.0 0zm-29.796875 0l0 -44.265625l12.015625 0l0 44.265625l-12.015625 0zm72.41705 0.921875q-6.78125 0 -12.203125 -3.015625q-5.40625 -3.03125 -8.515625 -8.25q-3.109375 -5.234375 -3.109375 -11.75q0 -6.59375 3.109375 -11.8125q3.109375 -5.234375 8.5625 -8.296875q5.453125 -3.078125 12.15625 -3.078125q5.21875 0 9.609375 1.9375q4.40625 1.921875 7.609375 5.484375l-7.6875 7.796875q-1.75 -1.921875 -4.1875 -2.921875q-2.421875 -1.015625 -5.34375 -1.015625q-3.3125 0 -5.921875 1.515625q-2.609375 1.5 -4.125 4.125q-1.5 2.609375 -1.5 6.171875q0 3.484375 1.5 6.1875q1.515625 2.703125 4.125 4.21875q2.609375 1.515625 5.921875 1.515625q3.015625 0 5.4375 -1.046875q2.4375 -1.0625 4.1875 -3.078125l7.78125 7.796875q-3.390625 3.65625 -7.796875 5.59375q-4.390625 1.921875 -9.609375 1.921875zm44.352234 0q-6.96875 0 -12.375 -2.984375q-5.40625 -2.984375 -8.5625 -8.203125q-3.15625 -5.21875 -3.15625 -11.921875q0 -6.59375 3.0625 -11.765625q3.078125 -5.1875 8.390625 -8.25q5.3125 -3.078125 11.8125 -3.078125q6.421875 0 11.328125 2.890625q4.90625 2.890625 7.703125 7.890625q2.796875 4.984375 2.796875 11.3125q0 1.1875 -0.140625 2.4375q-0.140625 1.234375 -0.5 2.78125l-37.21875 0.09375l0 -8.984375l31.625 -0.09375l-4.859375 3.765625q-0.1875 -3.9375 -1.421875 -6.59375q-1.234375 -2.671875 -3.578125 -4.078125q-2.328125 -1.421875 -5.734375 -1.421875q-3.5625 0 -6.234375 1.609375q-2.65625 1.59375 -4.078125 4.484375q-1.40625 2.875 -1.40625 6.828125q0 4.03125 1.5 7.015625q1.515625 2.96875 4.359375 4.578125q2.84375 1.59375 6.59375 1.59375q3.390625 0 6.140625 -1.140625q2.75 -1.140625 4.765625 -3.4375l7.0625 7.0625q-3.203125 3.75 -7.84375 5.6875q-4.625 1.921875 -10.03125 1.921875z" fill-rule="nonzero"/><path fill="#ac6d82" d="m110.87018 68.87985l0 11.932495l-23.192657 0l-5.7981644 -5.9662476l5.7981644 -5.9662476z" fill-rule="evenodd"/><path fill="#da717f" d="m83.522675 89.80502c-8.254715 8.21534 -21.60424 8.190231 -29.827988 -0.056106567c-8.223743 -8.246338 -8.2122345 -21.595886 0.025718689 -29.82803c8.237953 -8.232143 21.58751 -8.234234 29.828041 -0.004673004l-8.298355 8.30941l0 0c-3.6546707 -3.6498108 -9.575203 -3.64888 -13.228733 0.0020751953c-3.653534 3.6509552 -3.658638 9.57148 -0.011405945 13.228729c3.6472282 3.6572495 9.567745 3.6683884 13.22871 0.024887085z" fill-rule="evenodd"/><path fill="#ac6d82" d="m110.8778 68.90607c2.9150085 20.74607 -9.66507 40.53872 -29.686401 46.706604c-20.021332 6.167885 -41.558407 -3.114441 -50.82309 -21.904388c-9.264687 -18.789948 -3.515005 -41.526443 13.568071 -53.653484c17.083076 -12.127037 40.443634 -10.055496 55.126152 4.8884125l-8.40509 8.258064l0 0c-10.627197 -10.816402 -27.535572 -12.315784 -39.900303 -3.538231c-12.364731 8.77755 -16.526352 25.234226 -9.820572 38.834393c6.70578 13.600159 22.294315 20.31871 36.785755 15.854393c14.49144 -4.4643173 23.596893 -18.790237 21.487015 -33.806236z" fill-rule="evenodd"/><path fill="#695e77" d="m115.65619 30.529615l0 0c24.461258 25.978296 23.234024 66.86692 -2.7412262 91.33141c-25.975243 24.464485 -66.86401 23.242363 -91.33175 -2.7298355c-24.467733 -25.97219 -23.2507 -66.86112 2.718441 -91.33209c25.969141 -24.470974 66.85822 -23.25904 91.332436 2.7070503l-8.851967 8.34338l0 0c-19.8667 -21.077715 -53.058002 -22.06149 -74.13819 -2.197422c-21.080193 19.864067 -22.068106 53.05525 -2.2066689 74.13791c19.861439 21.082672 53.052494 22.074722 74.137634 2.2159119c21.085144 -19.858803 22.081337 -53.049736 2.2251587 -74.13736z" fill-rule="evenodd"/><path fill="#000000" fill-opacity="0.0" d="m567.48553 69.04462l420.50397 0l0 113.35434l-420.50397 0z" fill-rule="evenodd"/><path fill="#ac6d82" d="m591.00116 150.98659q-2.5625 0 -4.203125 -1.703125q-1.625 -1.703125 -1.625 -4.1875q0 -2.484375 1.625 -4.1875q1.640625 -1.71875 4.203125 -1.71875q2.484375 0 4.125 1.71875q1.640625 1.703125 1.640625 4.1875q0 2.484375 -1.640625 4.1875q-1.640625 1.703125 -4.125 1.703125zm29.7854 0q-5.265625 0 -9.453125 -2.34375q-4.1875 -2.34375 -6.609375 -6.390625q-2.421875 -4.046875 -2.421875 -9.09375q0 -5.125 2.421875 -9.171875q2.421875 -4.046875 6.640625 -6.421875q4.234375 -2.390625 9.421875 -2.390625q4.046875 0 7.453125 1.5q3.421875 1.484375 5.90625 4.25l-5.96875 6.046875q-1.34375 -1.5 -3.234375 -2.28125q-1.875 -0.78125 -4.15625 -0.78125q-2.5625 0 -4.59375 1.171875q-2.015625 1.171875 -3.1875 3.203125q-1.171875 2.03125 -1.171875 4.796875q0 2.703125 1.171875 4.796875q1.171875 2.09375 3.1875 3.28125q2.03125 1.171875 4.59375 1.171875q2.34375 0 4.21875 -0.8125q1.890625 -0.828125 3.25 -2.390625l6.03125 6.03125q-2.625 2.84375 -6.046875 4.34375q-3.40625 1.484375 -7.453125 1.484375zm34.11035 0q-5.1875 0 -9.34375 -2.375q-4.15625 -2.375 -6.609375 -6.453125q-2.453125 -4.09375 -2.453125 -9.140625q0 -5.046875 2.421875 -9.0625q2.421875 -4.015625 6.609375 -6.390625q4.1875 -2.390625 9.3125 -2.390625q5.265625 0 9.421875 2.390625q4.15625 2.375 6.5625 6.390625q2.421875 4.015625 2.421875 9.0625q0 5.046875 -2.421875 9.140625q-2.40625 4.078125 -6.5625 6.453125q-4.15625 2.375 -9.359375 2.375zm-0.0625 -8.65625q2.625 0 4.65625 -1.171875q2.03125 -1.1875 3.125 -3.28125q1.109375 -2.09375 1.109375 -4.796875q0 -2.703125 -1.140625 -4.765625q-1.140625 -2.0625 -3.140625 -3.234375q-1.984375 -1.171875 -4.609375 -1.171875q-2.5625 0 -4.5625 1.171875q-1.984375 1.171875 -3.125 3.234375q-1.125 2.0625 -1.125 4.765625q0 2.703125 1.125 4.796875q1.140625 2.09375 3.125 3.28125q2.0 1.171875 4.5625 1.171875zm24.38092 7.953125l0 -34.328125l9.3125 0l0 34.328125l-9.3125 0zm22.390625 0l0 -20.25q0 -3.0 -1.890625 -4.65625q-1.875 -1.671875 -4.65625 -1.671875q-1.84375 0 -3.34375 0.75q-1.484375 0.734375 -2.34375 2.15625q-0.84375 1.421875 -0.84375 3.421875l-3.625 -1.78125q0 -3.984375 1.734375 -6.890625q1.75 -2.921875 4.734375 -4.515625q2.984375 -1.609375 6.75 -1.609375q3.546875 0 6.453125 1.609375q2.921875 1.59375 4.625 4.484375q1.71875 2.875 1.71875 6.921875l0 22.03125l-9.3125 0zm22.390625 0l0 -20.25q0 -3.0 -1.890625 -4.65625q-1.875 -1.671875 -4.65625 -1.671875q-1.78125 0 -3.3125 0.75q-1.515625 0.734375 -2.375 2.15625q-0.84375 1.421875 -0.84375 3.421875l-5.328125 -1.28125q0.28125 -4.125 2.1875 -7.140625q1.921875 -3.03125 5.046875 -4.703125q3.140625 -1.671875 6.96875 -1.671875q3.84375 0 6.890625 1.609375q3.0625 1.59375 4.84375 4.578125q1.78125 2.984375 1.78125 7.109375l0 21.75l-9.3125 0zm16.843445 0l0 -34.328125l9.3125 0l0 34.328125l-9.3125 0zm22.390625 0l0 -20.25q0 -3.0 -1.890625 -4.65625q-1.875 -1.671875 -4.65625 -1.671875q-1.84375 0 -3.34375 0.75q-1.484375 0.734375 -2.34375 2.15625q-0.84375 1.421875 -0.84375 3.421875l-3.625 -1.78125q0 -3.984375 1.734375 -6.890625q1.75 -2.921875 4.734375 -4.515625q2.984375 -1.609375 6.75 -1.609375q3.546875 0 6.453125 1.609375q2.921875 1.59375 4.625 4.484375q1.71875 2.875 1.71875 6.921875l0 22.03125l-9.3125 0zm22.390625 0l0 -20.25q0 -3.0 -1.890625 -4.65625q-1.875 -1.671875 -4.65625 -1.671875q-1.78125 0 -3.3125 0.75q-1.515625 0.734375 -2.375 2.15625q-0.84375 1.421875 -0.84375 3.421875l-5.328125 -1.28125q0.28125 -4.125 2.1875 -7.140625q1.921875 -3.03125 5.046875 -4.703125q3.140625 -1.671875 6.96875 -1.671875q3.84375 0 6.890625 1.609375q3.0625 1.59375 4.84375 4.578125q1.78125 2.984375 1.78125 7.109375l0 21.75l-9.3125 0zm31.48407 0.703125q-4.546875 0 -8.078125 -1.90625q-3.515625 -1.921875 -5.5 -5.328125q-1.984375 -3.421875 -1.984375 -7.890625l0 -19.90625l9.375 0l0 19.6875q0 2.125 0.703125 3.65625q0.71875 1.53125 2.140625 2.3125q1.421875 0.78125 3.34375 0.78125q2.90625 0 4.546875 -1.765625q1.640625 -1.78125 1.640625 -4.984375l0 -19.6875l9.3125 0l0 19.90625q0 4.546875 -1.96875 7.953125q-1.953125 3.40625 -5.46875 5.296875q-3.515625 1.875 -8.0625 1.875zm45.98236 -0.703125l0 -19.6875q0 -3.0625 -1.921875 -4.96875q-1.90625 -1.921875 -4.96875 -1.921875q-1.984375 0 -3.5625 0.859375q-1.5625 0.84375 -2.453125 2.40625q-0.875 1.5625 -0.875 3.625l-3.625 -1.84375q0 -4.0625 1.734375 -7.078125q1.75 -3.015625 4.828125 -4.71875q3.09375 -1.71875 7.015625 -1.71875q3.765625 0 6.75 1.890625q2.984375 1.875 4.6875 4.90625q1.703125 3.015625 1.703125 6.5l0 21.75l-9.3125 0zm-23.09375 0l0 -34.328125l9.3125 0l0 34.328125l-9.3125 0zm39.94586 0l0 -34.328125l9.375 0l0 34.328125l-9.375 0zm4.6875 -39.875q-2.265625 0 -3.765625 -1.53125q-1.5 -1.53125 -1.5 -3.796875q0 -2.203125 1.5 -3.765625q1.5 -1.5625 3.765625 -1.5625q2.34375 0 3.796875 1.5625q1.46875 1.5625 1.46875 3.765625q0 2.265625 -1.46875 3.796875q-1.453125 1.53125 -3.796875 1.53125zm17.986755 39.875l0 -48.625l9.3125 0l0 48.625l-9.3125 0zm-8.03125 -26.15625l0 -8.171875l25.375 0l0 8.171875l-25.375 0zm41.430603 26.4375l-14.359375 -34.609375l10.09375 0l9.53125 26.4375l-3.40625 0l9.875 -26.4375l10.15625 0l-15.28125 34.609375l-6.609375 0zm-9.515625 14.078125l10.4375 -22.109375l5.6875 8.03125l-6.25 14.078125l-9.875 0z" fill-rule="nonzero"/></g></svg>